<?xml version="1.0" encoding="UTF-8"?>
<svg id="Layer_1" xmlns="http://www.w3.org/2000/svg" version="1.1" viewBox="0 0 2801.84 1003.28">
  <!-- Generator: Adobe Illustrator 30.6.0, SVG Export Plug-In . SVG Version: 2.1.4 Build 109)  -->
  <defs>
    <style>
      .st0 {
        fill: #ff3a00;
      }

      .st1 {
        fill: #d4e2ec;
      }
    </style>
  </defs>
  <g>
    <path class="st1" d="M578,776.7c-49.52,0-94.12-14.06-129-40.65-31.41-23.95-54.39-58.01-64.71-95.92l-.9-4.46.93-3.29c24.29-85.41,96.69-136.41,193.66-136.41,49.52,0,94.12,14.06,129,40.65,31.41,23.95,54.39,58.01,64.71,95.92l.21.9.7,3.42-.94,3.43c-24.29,85.41-96.69,136.41-193.66,136.41ZM413,636.38c16.45,54.7,67.95,111.68,164.99,111.68,83.18,0,143.08-40.67,164.98-111.77-16.45-54.69-67.95-111.68-164.99-111.68-83.18,0-143.08,40.67-164.98,111.77Z"/>
    <circle class="st0" cx="577.99" cy="636.33" r="73.95"/>
    <path class="st1" d="M595.03,0h-33.74L0,972.18l17.96,31.11h1119.72l18.3-31.69L595.03,0ZM46.96,965.8L578.16,45.74l531.2,920.06H46.96Z"/>
  </g>
  <path class="st1" d="M1210.63,543.15V183.95h67.73v146.76h115.97v-146.76h67.74v359.2h-67.74v-147.79h-115.97v147.79h-67.73Z"/>
  <path class="st1" d="M1610.15,550.33c-42.42,0-74.58-11.71-96.47-35.15-21.9-23.43-32.84-55.5-32.84-96.21v-235.02h67.74v235.02c0,20.87,5.04,37.38,15.14,49.52,10.09,12.15,25.57,18.22,46.44,18.22s36.77-6.07,46.7-18.22c9.92-12.14,14.88-28.65,14.88-49.52v-235.02h67.73v235.02c0,40.71-10.86,72.79-32.58,96.21-21.73,23.44-53.97,35.15-96.73,35.15Z"/>
  <path class="st1" d="M1758.24,543.15V183.95h132.39l42.08,325.33h9.24V183.95h67.74v359.2h-132.39l-42.08-325.33h-9.24v325.33h-67.73Z"/>
  <path class="st1" d="M2123.9,543.15V248.6h-95.45v-64.66h258.62v64.66h-95.44v294.54h-67.73Z"/>
  <path class="st1" d="M2305.85,543.15V183.95h226.81v64.66h-159.07v82.1h152.92v64.66h-152.92v83.13h159.07v64.66h-226.81Z"/>
  <path class="st1" d="M2551.43,543.15V183.95h137.52c24.63,0,45.33,4.45,62.09,13.34,16.76,8.9,29.42,20.78,37.97,35.66,8.55,14.88,12.83,31.56,12.83,50.03v12.32c0,14.71-4.02,28.48-12.06,41.31-8.04,12.83-20.1,22.67-36.18,29.51v9.24c11.97,1.37,21.46,5.99,28.48,13.85,7.01,7.87,10.52,17.79,10.52,29.76v124.18h-67.74v-107.76c0-8.21-2.14-14.88-6.41-20.01-4.28-5.13-11.38-7.7-21.3-7.7h-78v135.47h-67.73ZM2619.16,343.02h64.66c16.42,0,28.9-3.93,37.46-11.8,8.55-7.87,12.83-18.64,12.83-32.33v-6.16c0-11.97-4.28-22.32-12.83-31.05-8.56-8.72-21.04-13.08-37.46-13.08h-64.66v94.42Z"/>
  <g>
    <path class="st0" d="M1295.48,827.6c-18.59,0-34.2-3.38-46.82-10.15-12.63-6.77-22.12-16.01-28.48-27.73-6.37-11.71-9.55-24.95-9.55-39.7v-9.09h40v7.27c0,12.73,3.74,22.88,11.21,30.46,7.47,7.58,18.89,11.36,34.25,11.36,12.12,0,21.11-2.62,26.97-7.88,5.86-5.25,8.79-11.51,8.79-18.79,0-4.65-1.11-8.94-3.33-12.88-2.22-3.94-6.26-7.37-12.12-10.3-5.86-2.93-14.24-5.3-25.15-7.12-14.14-2.43-26.72-5.96-37.73-10.61-11.02-4.64-19.7-11.16-26.06-19.55-6.36-8.38-9.54-19.55-9.54-33.49v-1.82c0-11.52,3.03-21.87,9.09-31.06,6.06-9.19,14.59-16.41,25.61-21.67,11.01-5.25,23.88-7.88,38.64-7.88,16.77,0,30.91,3.03,42.43,9.09,11.51,6.06,20.25,14.09,26.21,24.09,5.96,10,8.94,20.76,8.94,32.27v10.91h-40v-7.27c0-8.48-3.28-15.86-9.85-22.12-6.57-6.26-15.81-9.39-27.73-9.39-9.9,0-17.83,2.07-23.79,6.21-5.96,4.14-8.94,9.75-8.94,16.82s3.18,13.13,9.55,17.58c6.36,4.45,18.33,8.29,35.91,11.51,22.22,3.84,39.2,10.56,50.91,20.15,11.71,9.6,17.58,23.69,17.58,42.27v3.64c0,19.6-6.87,35.3-20.61,47.12-13.74,11.82-32.53,17.73-56.36,17.73Z"/>
    <path class="st0" d="M1508.1,823.36v-74.55h-9.09l-60.91-137.58h43.63l43.64,101.22h5.45l43.64-101.22h43.64l-60.91,137.58h-9.09v74.55h-40Z"/>
    <path class="st0" d="M1766.77,827.6c-18.59,0-34.2-3.38-46.82-10.15-12.63-6.77-22.12-16.01-28.48-27.73-6.37-11.71-9.55-24.95-9.55-39.7v-9.09h40v7.27c0,12.73,3.74,22.88,11.21,30.46,7.47,7.58,18.89,11.36,34.25,11.36,12.12,0,21.11-2.62,26.97-7.88,5.86-5.25,8.79-11.51,8.79-18.79,0-4.65-1.11-8.94-3.33-12.88-2.22-3.94-6.26-7.37-12.12-10.3-5.86-2.93-14.24-5.3-25.15-7.12-14.14-2.43-26.72-5.96-37.73-10.61-11.02-4.64-19.7-11.16-26.06-19.55-6.36-8.38-9.54-19.55-9.54-33.49v-1.82c0-11.52,3.03-21.87,9.09-31.06,6.06-9.19,14.59-16.41,25.61-21.67,11.01-5.25,23.88-7.88,38.64-7.88,16.77,0,30.91,3.03,42.43,9.09,11.51,6.06,20.25,14.09,26.21,24.09,5.96,10,8.94,20.76,8.94,32.27v10.91h-40v-7.27c0-8.48-3.28-15.86-9.85-22.12-6.57-6.26-15.81-9.39-27.73-9.39-9.9,0-17.83,2.07-23.79,6.21-5.96,4.14-8.94,9.75-8.94,16.82s3.18,13.13,9.55,17.58c6.36,4.45,18.33,8.29,35.91,11.51,22.22,3.84,39.2,10.56,50.91,20.15,11.71,9.6,17.58,23.69,17.58,42.27v3.64c0,19.6-6.87,35.3-20.61,47.12-13.74,11.82-32.53,17.73-56.36,17.73Z"/>
    <path class="st0" d="M1980.39,823.36v-173.95h-56.37v-38.18h152.73v38.18h-56.36v173.95h-40Z"/>
    <path class="st0" d="M2165.97,823.36v-212.13h133.94v38.18h-93.94v48.49h90.31v38.18h-90.31v49.09h97.58v38.18h-137.58Z"/>
    <path class="st0" d="M2389.13,823.36v-212.13h70.31l12.12,159.4v30.91h7.28v-30.91l12.12-159.4h70.31v212.13h-36.37v-141.82l3.64-48.49h-7.28l-15.75,190.31h-60.01l-16.36-190.31h-7.27l3.63,48.49v141.82h-36.36Z"/>
    <path class="st0" d="M2724.87,827.6c-18.59,0-34.2-3.38-46.82-10.15-12.63-6.77-22.12-16.01-28.48-27.73-6.37-11.71-9.55-24.95-9.55-39.7v-9.09h40v7.27c0,12.73,3.74,22.88,11.21,30.46,7.47,7.58,18.89,11.36,34.25,11.36,12.12,0,21.11-2.62,26.97-7.88,5.86-5.25,8.79-11.51,8.79-18.79,0-4.65-1.11-8.94-3.33-12.88-2.22-3.94-6.26-7.37-12.12-10.3-5.86-2.93-14.24-5.3-25.15-7.12-14.14-2.43-26.72-5.96-37.73-10.61-11.02-4.64-19.7-11.16-26.06-19.55-6.36-8.38-9.54-19.55-9.54-33.49v-1.82c0-11.52,3.03-21.87,9.09-31.06,6.06-9.19,14.59-16.41,25.61-21.67,11.01-5.25,23.88-7.88,38.64-7.88,16.77,0,30.91,3.03,42.43,9.09,11.51,6.06,20.25,14.09,26.21,24.09,5.96,10,8.94,20.76,8.94,32.27v10.91h-40v-7.27c0-8.48-3.28-15.86-9.85-22.12-6.57-6.26-15.81-9.39-27.73-9.39-9.9,0-17.83,2.07-23.79,6.21-5.96,4.14-8.94,9.75-8.94,16.82s3.18,13.13,9.55,17.58c6.36,4.45,18.33,8.29,35.91,11.51,22.22,3.84,39.2,10.56,50.91,20.15,11.71,9.6,17.58,23.69,17.58,42.27v3.64c0,19.6-6.87,35.3-20.61,47.12-13.74,11.82-32.53,17.73-56.36,17.73Z"/>
  </g>
</svg>