<?xml version="1.0" encoding="UTF-8"?>
<svg id="Medwick_2" xmlns="http://www.w3.org/2000/svg" version="1.1" viewBox="0 0 1200 1200">
  <!-- Generator: Adobe Illustrator 30.6.0, SVG Export Plug-In . SVG Version: 2.1.4 Build 109)  -->
  <defs>
    <style>
      .st0 {
        font-family: BellMTBold, 'Bell MT';
        font-size: 58.29px;
        letter-spacing: -.05em;
      }

      .st0, .st1 {
        fill: #232935;
      }

      .st2, .st3, .st4 {
        fill: #c0a674;
      }

      .st3 {
        font-family: FallingSkyBlk, 'Falling Sky';
        font-size: 81px;
      }

      .st4 {
        font-family: EurostileExt-Bla, 'Eurostile Extd';
        font-size: 41.62px;
        letter-spacing: .3em;
      }
    </style>
  </defs>
  <polygon class="st2" points="600.38 385.81 600.38 385.81 600.38 385.81 521.9 420.89 600.38 420.89 600.38 420.89 678.86 420.89 600.38 385.81 600.38 385.81 600.38 385.81"/>
  <polygon class="st2" points="755.25 455.89 743.62 455.89 726 455.89 600.38 455.89 600.38 455.89 474.75 455.89 457.13 455.89 445.5 455.89 443.58 455.89 423.45 464.89 445.5 464.89 457.13 464.89 474.75 464.89 600.38 464.89 600.38 464.89 726 464.89 743.62 464.89 755.25 464.89 777.3 464.89 757.17 455.89 755.25 455.89"/>
  <polygon class="st2" points="819.54 448.89 812.63 445.8 801 440.6 783.38 432.73 755.25 420.16 743.62 414.96 726 407.08 600.38 350.94 600.38 350.94 600.38 350.94 600.38 350.94 600.38 350.94 474.75 407.08 457.13 414.96 445.5 420.16 417.37 432.73 399.75 440.6 388.12 445.8 381.21 448.89 365.55 455.89 324.45 455.89 281.65 455.89 266.25 455.89 238.86 455.89 87.38 455.89 87.38 464.89 246.11 464.89 261.51 464.89 304.31 464.89 345.42 464.89 388.12 464.89 388.21 464.89 399.75 459.72 408.35 455.89 417.37 451.86 424.01 448.89 445.5 439.28 457.13 434.08 474.75 426.21 486.66 420.89 600.38 370.06 714.09 420.89 726 426.21 743.62 434.08 755.25 439.28 776.74 448.89 783.38 451.86 792.4 455.89 801 459.72 812.54 464.89 812.63 464.89 855.33 464.89 835.2 455.89 819.54 448.89"/>
  <rect class="st2" x="87.38" y="631.39" width="161.75" height="9"/>
  <rect class="st2" x="952.88" y="631.39" width="161.75" height="9"/>
  <path class="st2" d="M919.1,455.89l-15.66-7-90.81-40.59-11.63-5.2-17.62-7.86-28.12-12.58-11.63-5.2-17.62-7.88-125.63-56.15h0s0,0,0,0h0s0,0,0,0l-125.63,56.15v-6.87l-17.62,7.88v6.87l-11.63,5.2v-19.12l-28.12,12.58-17.62,7.86-11.63,5.2v19.12l-86.11,38.49h42.79l43.32-19.37,11.63-5.2,17.62-7.86,28.12-12.58,11.63-5.2,17.62-7.88,125.63-56.15,125.63,56.15,17.62,7.88,11.63,5.2,28.12,12.58,17.62,7.86,11.63,5.2,48.02,21.47,15.66,7,20.14,9h42.8l-20.14-9ZM417.37,395.24l-17.62,7.86v-6.87l17.62-7.88v6.88Z"/>
  <g>
    <path class="st1" d="M87.37,492.94h50.71l38.27,69.76,38.11-69.76h50.39v105.04h-31.18l1.57-81.1-46.61,81.1h-25.51l-45.83-81.1.95,81.1h-30.87v-105.04Z"/>
    <path class="st1" d="M396.83,492.94v23.78h-84.88v18.11h80v20.79h-80v18.58h85.99v23.78h-117.48v-105.04h116.38Z"/>
    <path class="st1" d="M409.74,492.94h90.71c22.21,0,32.6,2.52,39.84,9.76,5.83,5.67,8.19,12.28,9.29,25.67.32,4.88.63,12.13.63,17.17,0,9.45-.63,20.32-1.57,26.3-1.73,12.6-10.55,22.36-22.05,24.57-5.98,1.26-10.71,1.57-21.89,1.57h-94.96v-105.04ZM495.25,572.94c8.66,0,9.29,0,13.07-1.26,7.72-2.36,9.76-7.87,9.76-25.98,0-22.05-3.78-26.61-22.21-26.61h-54.17v53.86h53.54Z"/>
    <path class="st1" d="M584.86,492.94l30.55,80,27.09-80h38.58l26.3,80,31.5-80h32.44l-43.47,105.04h-42.84l-23.31-75.59-24.41,75.59h-42.52l-42.36-105.04h32.44Z"/>
    <path class="st1" d="M779.83,492.94h31.97v105.04h-31.97v-105.04Z"/>
    <path class="st1" d="M958.88,558.45c-.16,15.28-.63,20.47-2.83,25.2-4.09,8.98-12.6,13.23-28.98,14.33-6.46.63-19.05.79-40,.79-30.24,0-40-1.42-48.5-6.93-10.39-6.61-13.39-17.64-13.39-48.82,0-27.72,3.15-37.64,14.17-43.94,9.45-5.51,19.53-6.93,48.98-6.93,39.21,0,47.72.79,56.69,5.2,8.5,4.25,12.44,13.54,12.44,28.98v3.46h-30.55c-.63-11.5-2.99-12.44-30.71-12.44-26.14,0-30.87.63-34.8,4.09-3.78,3.46-4.57,7.72-4.57,24.72,0,25.2,2.36,27.09,33.07,27.09,23.78,0,27.24-.16,31.65-2.05,4.57-1.89,6.3-5.2,6.3-12.76h31.02Z"/>
    <path class="st1" d="M971.48,492.94h31.97v39.21h16.69l43.47-39.21h43.94l-60.32,51.97,66.14,53.07h-46.46l-47.4-40.32h-16.06v40.32h-31.97v-105.04Z"/>
  </g>
  <text class="st4" transform="translate(295.27 650.85)"><tspan x="0" y="0">CONSTRUCTION</tspan></text>
  <text class="st3" transform="translate(325.71 855.6)"><tspan x="0" y="0">330-635-3744</tspan></text>
  <text class="st0" transform="translate(99.67 742.79)"><tspan x="0" y="0">Building Excellence, One Project at a Time.</tspan></text>
</svg>