<?xml version="1.0" encoding="UTF-8"?>
<svg id="Medwick_1" xmlns="http://www.w3.org/2000/svg" version="1.1" viewBox="0 0 1200 1200">
  <!-- Generator: Adobe Illustrator 30.6.0, SVG Export Plug-In . SVG Version: 2.1.4 Build 109)  -->
  <defs>
    <style>
      .st0 {
        font-family: BellMTBold, 'Bell MT';
        font-size: 58.29px;
        letter-spacing: -.05em;
      }

      .st0, .st1 {
        fill: #f0f0f2;
      }

      .st2, .st3, .st4 {
        fill: #c0a674;
      }

      .st3 {
        font-family: FallingSkyBlk, 'Falling Sky';
        font-size: 81px;
      }

      .st4 {
        font-family: EurostileExt-Bla, 'Eurostile Extd';
        font-size: 41.62px;
        letter-spacing: .3em;
      }
    </style>
  </defs>
  <polygon class="st2" points="599.38 384.81 599.38 384.81 599.38 384.81 520.9 419.89 599.38 419.89 599.38 419.89 677.86 419.89 599.38 384.81 599.38 384.81 599.38 384.81"/>
  <polygon class="st2" points="754.25 454.89 742.62 454.89 725 454.89 599.38 454.89 599.38 454.89 473.75 454.89 456.13 454.89 444.5 454.89 442.58 454.89 422.45 463.89 444.5 463.89 456.13 463.89 473.75 463.89 599.38 463.89 599.38 463.89 725 463.89 742.62 463.89 754.25 463.89 776.3 463.89 756.17 454.89 754.25 454.89"/>
  <polygon class="st2" points="818.54 447.89 811.63 444.8 800 439.6 782.38 431.73 754.25 419.16 742.62 413.96 725 406.08 599.38 349.94 599.38 349.94 599.38 349.94 599.38 349.94 599.38 349.94 473.75 406.08 456.13 413.96 444.5 419.16 416.37 431.73 398.75 439.6 387.12 444.8 380.21 447.89 364.55 454.89 323.45 454.89 280.65 454.89 265.25 454.89 237.86 454.89 86.38 454.89 86.38 463.89 245.11 463.89 260.51 463.89 303.31 463.89 344.42 463.89 387.12 463.89 387.21 463.89 398.75 458.72 407.35 454.89 416.37 450.86 423.01 447.89 444.5 438.28 456.13 433.08 473.75 425.21 485.66 419.89 599.38 369.06 713.09 419.89 725 425.21 742.62 433.08 754.25 438.28 775.74 447.89 782.38 450.86 791.4 454.89 800 458.72 811.54 463.89 811.63 463.89 854.33 463.89 834.2 454.89 818.54 447.89"/>
  <rect class="st2" x="86.38" y="630.39" width="161.75" height="9"/>
  <rect class="st2" x="951.88" y="630.39" width="161.75" height="9"/>
  <path class="st2" d="M918.1,454.89l-15.66-7-90.81-40.59-11.63-5.2-17.62-7.86-28.12-12.58-11.63-5.2-17.62-7.88-125.63-56.15h0s0,0,0,0h0s0,0,0,0l-125.63,56.15v-6.87l-17.62,7.88v6.87l-11.63,5.2v-19.12l-28.12,12.58-17.62,7.86-11.63,5.2v19.12l-86.11,38.49h42.79l43.32-19.37,11.63-5.2,17.62-7.86,28.12-12.58,11.63-5.2,17.62-7.88,125.63-56.15,125.63,56.15,17.62,7.88,11.63,5.2,28.12,12.58,17.62,7.86,11.63,5.2,48.02,21.47,15.66,7,20.14,9h42.8l-20.14-9ZM416.37,394.24l-17.62,7.86v-6.87l17.62-7.88v6.88Z"/>
  <g>
    <path class="st1" d="M86.37,491.94h50.71l38.27,69.76,38.11-69.76h50.39v105.04h-31.18l1.57-81.1-46.61,81.1h-25.51l-45.83-81.1.95,81.1h-30.87v-105.04Z"/>
    <path class="st1" d="M395.83,491.94v23.78h-84.88v18.11h80v20.79h-80v18.58h85.99v23.78h-117.48v-105.04h116.38Z"/>
    <path class="st1" d="M408.74,491.94h90.71c22.21,0,32.6,2.52,39.84,9.76,5.83,5.67,8.19,12.28,9.29,25.67.32,4.88.63,12.13.63,17.17,0,9.45-.63,20.32-1.57,26.3-1.73,12.6-10.55,22.36-22.05,24.57-5.98,1.26-10.71,1.57-21.89,1.57h-94.96v-105.04ZM494.25,571.94c8.66,0,9.29,0,13.07-1.26,7.72-2.36,9.76-7.87,9.76-25.98,0-22.05-3.78-26.61-22.21-26.61h-54.17v53.86h53.54Z"/>
    <path class="st1" d="M583.86,491.94l30.55,80,27.09-80h38.58l26.3,80,31.5-80h32.44l-43.47,105.04h-42.84l-23.31-75.59-24.41,75.59h-42.52l-42.36-105.04h32.44Z"/>
    <path class="st1" d="M778.83,491.94h31.97v105.04h-31.97v-105.04Z"/>
    <path class="st1" d="M957.88,557.45c-.16,15.28-.63,20.47-2.83,25.2-4.09,8.98-12.6,13.23-28.98,14.33-6.46.63-19.05.79-40,.79-30.24,0-40-1.42-48.5-6.93-10.39-6.61-13.39-17.64-13.39-48.82,0-27.72,3.15-37.64,14.17-43.94,9.45-5.51,19.53-6.93,48.98-6.93,39.21,0,47.72.79,56.69,5.2,8.5,4.25,12.44,13.54,12.44,28.98v3.46h-30.55c-.63-11.5-2.99-12.44-30.71-12.44-26.14,0-30.87.63-34.8,4.09-3.78,3.46-4.57,7.72-4.57,24.72,0,25.2,2.36,27.09,33.07,27.09,23.78,0,27.24-.16,31.65-2.05,4.57-1.89,6.3-5.2,6.3-12.76h31.02Z"/>
    <path class="st1" d="M970.48,491.94h31.97v39.21h16.69l43.47-39.21h43.94l-60.32,51.97,66.14,53.07h-46.46l-47.4-40.32h-16.06v40.32h-31.97v-105.04Z"/>
  </g>
  <text class="st4" transform="translate(294.27 649.85)"><tspan x="0" y="0">CONSTRUCTION</tspan></text>
  <text class="st3" transform="translate(324.71 854.6)"><tspan x="0" y="0">330-635-3744</tspan></text>
  <text class="st0" transform="translate(98.67 741.79)"><tspan x="0" y="0">Building Excellence, One Project at a Time.</tspan></text>
</svg>