<?xml version="1.0" encoding="UTF-8"?>
<svg id="MW_Logo" xmlns="http://www.w3.org/2000/svg" version="1.1" viewBox="0 0 1200 1200">
  <!-- Generator: Adobe Illustrator 30.6.0, SVG Export Plug-In . SVG Version: 2.1.4 Build 109)  -->
  <defs>
    <style>
      .st0 {
        fill: #c0a674;
      }
    </style>
  </defs>
  <polygon class="st0" points="601 1014.36 550.08 937.65 531.76 965.23 601 1069.54 670.24 965.23 651.92 937.65 601 1014.36"/>
  <path class="st0" d="M1046.37,641.55h-197.83l-18.26,27.51-134.18,202.09,18.32,27.58,152.49-229.67h124.56l-229.52,345.67-62.29-93.81-18.32-27.58-62.23-93.73,89.76-135.15,15.21-22.91.26-.37-21.64-22.59-83.12-86.81,316.93-330.19v396.56h27.51V133.48l-27.51,28.73-335.4,350.27-.11.13-.11-.13L265.49,162.21l-27.51-28.73v464.66h27.51V201.58l316.93,330.19-83.12,86.81-21.64,22.59.26.37,15.21,22.91,89.76,135.15-62.23,93.73-18.32,27.58-62.29,93.81-229.52-345.67h124.56l152.49,229.67,18.32-27.58-134.18-202.09-18.26-27.51h-212.48v2.72c13.58,4.22,25.12,13.09,32.71,24.78h.21l247.84,373.26,18.22,27.45h.19l18.22-27.43,62.27-93.81,18.32-27.6,62.04-93.43,62.04,93.43,18.32,27.6,62.27,93.81,18.22,27.43h.19l18.22-27.45,247.84-373.26h.21c7.59-11.69,19.12-20.56,32.71-24.78v-2.72h-14.65ZM514.79,641.89l-.22-.34h.54l85.89-89.47,85.89,89.47h.54l-.22.34-86.21,129.84-86.21-129.84Z"/>
</svg>