<?xml version="1.0" encoding="UTF-8"?>
<svg id="Square_1" xmlns="http://www.w3.org/2000/svg" version="1.1" viewBox="0 0 1200 1200">
  <!-- Generator: Adobe Illustrator 30.6.0, SVG Export Plug-In . SVG Version: 2.1.4 Build 109)  -->
  <defs>
    <style>
      .st0 {
        fill: #c0a674;
      }
    </style>
  </defs>
  <path class="st0" d="M726.11,473.89l-126.11-340.81-126.11,340.81-340.81,126.11,340.81,126.11,126.11,340.81,126.11-340.81,340.81-126.11-340.81-126.11ZM460.29,600c0-77.04,62.67-139.71,139.71-139.71s139.71,62.67,139.71,139.71-62.67,139.71-139.71,139.71-139.71-62.67-139.71-139.71ZM746.15,509.19l245.42,90.81-245.42,90.81c16.45-26.38,25.97-57.5,25.97-90.81s-9.52-64.44-25.97-90.81ZM690.81,453.85c-26.38-16.45-57.5-25.97-90.81-25.97s-64.44,9.52-90.81,25.97l90.81-245.42,90.81,245.42ZM453.85,509.19c-16.45,26.38-25.97,57.5-25.97,90.81s9.52,64.44,25.97,90.81l-245.42-90.81,245.42-90.81ZM509.19,746.15c26.38,16.45,57.5,25.97,90.81,25.97s64.44-9.52,90.81-25.97l-90.81,245.42-90.81-245.42Z"/>
</svg>